<svg width="48" height="48" viewBox="0 0 48 48" fill="none" xmlns="http://www.w3.org/2000/svg" role="img" aria-label="LangChain">
  <rect width="48" height="48" rx="10" fill="#202638"/>
  <ellipse cx="31" cy="19" rx="7.6" ry="4.7" transform="rotate(-42 31 19)" stroke="#D9E2EA" stroke-width="2.8"/>
  <ellipse cx="36" cy="14" rx="7.6" ry="4.7" transform="rotate(-42 36 14)" stroke="#AAB7C4" stroke-width="2.8"/>
  <path d="M28.7 22.4L38.2 12.9" stroke="#F8FAFC" stroke-width="1.2" stroke-linecap="round" opacity=".75"/>
  <path d="M10 26C10.8 20.4 14.2 15.4 20.2 14.2C23.7 17.2 24 22.8 21.5 28.5C17 28.9 13 28.3 10 26Z" fill="#9DDA49"/>
  <path d="M17.8 25.3C21.3 26.2 24.7 27.7 28.7 30.4C24.1 31.3 18.9 30.4 15.2 27.8L17.8 25.3Z" fill="#77BE36"/>
  <path d="M19.5 16C23.8 17.7 25.7 21.8 25 26C22.5 25.3 20.1 24.6 17.4 24.4C19.1 21.8 19.9 19.1 19.5 16Z" fill="#F4A83A"/>
  <circle cx="15.5" cy="16" r="4.5" fill="#CDEB65"/>
  <circle cx="14.2" cy="15" r="1.1" fill="#111827"/>
  <path d="M11.5 16.7L7.4 18.5L11.3 20.1" fill="#E9C84E"/>
  <path d="M15.3 29.2L13.1 33M18.8 29.4L17.1 33.2" stroke="#D8DDE5" stroke-width="1.2" stroke-linecap="round"/>
  <path d="M11.9 33.2H15.1M16.2 33.3H19.3" stroke="#111827" stroke-width="1.1" stroke-linecap="round"/>
  <text x="24" y="43" text-anchor="middle" font-family="Arial, Helvetica, sans-serif" font-size="6.8" font-weight="800" fill="#F8FAFC">LangChain</text>
</svg>
